<svg height="514pt" viewBox="-1 0 514 514.144" width="514pt" xmlns="http://www.w3.org/2000/svg"><path d="m512.070312 514.144531h-511.9999995v-377.601562l255.9999995-136.542969 256 136.542969zm0 0" fill="#40c4ff"/><path d="m32.070312 482.144531h448v-326.402343l-224-119.453126-224 119.453126zm0 0" fill="#80d8ff"/><g fill="#fff"><path d="m120.070312 370.144531c-30.925781 0-56-25.074219-56-56v-64c0-30.929687 25.074219-56 56-56 30.929688 0 56 25.070313 56 56v8h-32v-8c0-13.253906-10.742187-24-24-24-13.253906 0-24 10.746094-24 24v64c0 13.253907 10.746094 24 24 24 13.257813 0 24-10.746093 24-24v-8h32v8c0 30.925781-25.070312 56-56 56zm0 0"/><path d="m264.070312 370.144531c-30.925781 0-56-25.074219-56-56v-64c0-30.929687 25.074219-56 56-56 30.929688 0 56 25.070313 56 56v64c0 30.925781-25.070312 56-56 56zm0-144c-13.253906 0-24 10.746094-24 24v64c0 13.253907 10.746094 24 24 24 13.257813 0 24-10.746093 24-24v-64c0-13.253906-10.742187-24-24-24zm0 0"/><path d="m448.070312 450.144531h-112v-41.054687l80-48c-.285156-13.257813-11.261718-23.769532-24.519531-23.480469-13.253906.285156-23.765625 11.265625-23.480469 24.519531v8.015625h-32v-8c0-30.929687 25.074219-56 56-56 30.929688 0 56 25.070313 56 56v17.054688l-64.894531 38.945312h64.894531zm0 0"/><path d="m344.6875 156.078125 15.082031-28.296875 28.238281 15.054688-15.085937 28.296874zm0 0"/><path d="m288.199219 125.972656 15.085937-28.292968 28.234375 15.054687-15.082031 28.292969zm0 0"/></g></svg>