<svg height="480pt" viewBox="-56 0 480 480" width="480pt" xmlns="http://www.w3.org/2000/svg" xmlns:xlink="http://www.w3.org/1999/xlink"><linearGradient id="lg1"><stop offset="0" stop-color="#fc5c7d"/><stop offset=".129" stop-color="#f35e85"/><stop offset=".343" stop-color="#d9659b"/><stop offset=".616" stop-color="#b070bf"/><stop offset=".934" stop-color="#777ff0"/><stop offset="1" stop-color="#6a82fb"/></linearGradient><linearGradient id="linear0" gradientUnits="userSpaceOnUse" x1="144" x2="144" xlink:href="#lg1" y1="-21.024" y2="525.84"/><linearGradient id="linear1" gradientUnits="userSpaceOnUse" x1="104.398515" x2="104.398515" xlink:href="#lg1" y1="-21.030757" y2="525.833243"/><linearGradient id="linear2" gradientUnits="userSpaceOnUse" x1="183.594556" x2="183.594556" xlink:href="#lg1" y1="-21.021198" y2="525.842802"/><linearGradient id="linear3" gradientUnits="userSpaceOnUse" x1="104.401315" x2="104.401315" xlink:href="#lg1" y1="-21.023998" y2="525.840002"/><linearGradient id="linear4" gradientUnits="userSpaceOnUse" x1="183.605413" x2="183.605413" xlink:href="#lg1" y1="-21.0223" y2="525.8417"/><linearGradient id="linear5" gradientUnits="userSpaceOnUse" x1="88" x2="88" xlink:href="#lg1" y1="-21.024" y2="525.84"/><linearGradient id="linear6" gradientUnits="userSpaceOnUse" x1="200" x2="200" xlink:href="#lg1" y1="-21.024" y2="525.84"/><linearGradient id="linear9" gradientUnits="userSpaceOnUse" x1="184" x2="184" xlink:href="#lg1" y1="-21.024" y2="525.84"/><linearGradient id="linear10" gradientUnits="userSpaceOnUse" x1="168" x2="168" xlink:href="#lg1" y1="-21.024" y2="525.84"/><linearGradient id="linear13" gradientUnits="userSpaceOnUse" x1="264" x2="264" xlink:href="#lg1" y1="-21.024" y2="525.84"/><linearGradient id="linear14" gradientUnits="userSpaceOnUse" x1="104" x2="104" xlink:href="#lg1" y1="-21.024" y2="525.84"/><linearGradient id="linear18" gradientUnits="userSpaceOnUse" x1="128" x2="128" xlink:href="#lg1" y1="-21.024" y2="525.84"/><linearGradient id="linear19" gradientUnits="userSpaceOnUse" x1="8" x2="8" xlink:href="#lg1" y1="-21.024" y2="525.84"/><linearGradient id="linear21" gradientUnits="userSpaceOnUse" x1="360" x2="360" xlink:href="#lg1" y1="-21.024" y2="525.84"/><path d="m144 192c17.671875 0 32-14.328125 32-32s-14.328125-32-32-32-32 14.328125-32 32 14.328125 32 32 32zm0-48c8.835938 0 16 7.164062 16 16s-7.164062 16-16 16-16-7.164062-16-16 7.164062-16 16-16zm0 0" fill="url(#linear0)"/><path d="m93.089844 199.597656 11.3125-11.3125 11.3125 11.3125-11.3125 11.316406zm0 0" fill="url(#linear1)"/><path d="m172.28125 120.402344 11.3125-11.316406 11.3125 11.316406-11.3125 11.3125zm0 0" fill="url(#linear2)"/><path d="m93.085938 120.402344 11.3125-11.3125 11.3125 11.3125-11.3125 11.316406zm0 0" fill="url(#linear3)"/><path d="m172.289062 199.597656 11.316407-11.316406 11.3125 11.316406-11.3125 11.3125zm0 0" fill="url(#linear4)"/><path d="m80 152h16v16h-16zm0 0" fill="url(#linear5)"/><path d="m192 152h16v16h-16zm0 0" fill="url(#linear6)"/><path d="m136 96h16v16h-16zm0 0" fill="url(#linear0)"/><path d="m136 208h16v16h-16zm0 0" fill="url(#linear0)"/><path d="m64 480h240c17.671875 0 32-14.328125 32-32v-416c0-17.671875-14.328125-32-32-32h-240c-17.671875 0-32 14.328125-32 32v416c0 17.671875 14.328125 32 32 32zm-16-448c0-8.835938 7.164062-16 16-16h240c8.835938 0 16 7.164062 16 16v416c0 8.835938-7.164062 16-16 16h-240c-8.835938 0-16-7.164062-16-16zm0 0" fill="url(#linear9)"/><path d="m160 32h16v16h-16zm0 0" fill="url(#linear10)"/><path d="m192 32h16v16h-16zm0 0" fill="url(#linear6)"/><path d="m176 432h16v16h-16zm0 0" fill="url(#linear9)"/><path d="m240 376h16v40h16v-40h16c4.417969 0 8-3.582031 8-8v-48c0-4.417969-3.582031-8-8-8h-16v-248h-16v248h-16c-4.417969 0-8 3.582031-8 8v48c0 4.417969 3.582031 8 8 8zm8-48h32v32h-32zm0 0" fill="url(#linear13)"/><path d="m96 272h16v16h-16zm0 0" fill="url(#linear14)"/><path d="m128 272h80v16h-80zm0 0" fill="url(#linear10)"/><path d="m80 304h128v16h-128zm0 0" fill="url(#linear0)"/><path d="m80 336h128v16h-128zm0 0" fill="url(#linear0)"/><path d="m80 368h96v16h-96zm0 0" fill="url(#linear18)"/><path d="m0 424h16v16h-16zm0 0" fill="url(#linear19)"/><path d="m0 240h16v168h-16zm0 0" fill="url(#linear19)"/><path d="m352 40h16v184h-16zm0 0" fill="url(#linear21)"/></svg>