<svg height="462pt" viewBox="-59 0 462 462.808" width="462pt" xmlns="http://www.w3.org/2000/svg"><path d="m14.796875 419.253906h315.328125v43.554688h-315.328125zm0 0" fill="#26a3b9"/><path d="m302.367188 419.253906h27.757812v43.554688h-27.757812zm0 0" fill="#168aa5"/><path d="m138.65625 314.65625h67.613281v77.050781h-67.613281zm0 0" fill="#26a3b9"/><path d="m138.65625 356.824219c22.3125 4.453125 45.285156 4.453125 67.601562 0v-42.167969h-67.601562zm0 0" fill="#168aa5"/><path d="m160.300781 380.179688h24.320313c21.574218 0 39.066406 17.492187 39.066406 39.066406h-102.460938c0-21.578125 17.496094-39.066406 39.074219-39.066406zm0 0" fill="#0162a7"/><path d="m184.621094 380.179688h-15.761719c21.578125 0 39.070313 17.492187 39.070313 39.066406h15.75c0-21.570313-17.484376-39.0625-39.058594-39.066406zm0 0" fill="#004584"/><path d="m344.515625 172.054688c0 95.023437-77.03125 172.058593-172.054687 172.058593-95.023438 0-172.058594-77.035156-172.058594-172.058593 0-95.023438 77.035156-172.054688 172.058594-172.054688 95.023437 0 172.054687 77.03125 172.054687 172.054688zm0 0" fill="#26a3b9"/><path d="m172.460938 0c-2.933594 0-5.855469.0742188-8.765626.21875 91.496094 4.675781 163.285157 80.222656 163.285157 171.835938 0 91.617187-71.789063 167.164062-163.285157 171.835937 2.90625.148437 5.824219.222656 8.765626.222656 95.023437 0 172.054687-77.035156 172.054687-172.058593 0-95.023438-77.03125-172.054688-172.054687-172.054688zm0 0" fill="#168aa5"/><path d="m315.183594 172.054688c0 78.824218-63.898438 142.726562-142.722656 142.726562-78.824219 0-142.726563-63.902344-142.726563-142.726562 0-78.824219 63.902344-142.722657 142.726563-142.722657 78.824218 0 142.722656 63.898438 142.722656 142.722657zm0 0" fill="#d9ecf2"/><g fill="#bdd9e5"><path d="m47.261719 172.054688c.003906-75.414063 58.6875-137.804688 133.957031-142.429688-2.898438-.175781-5.816406-.292969-8.761719-.292969-78.824219 0-142.726562 63.898438-142.726562 142.722657 0 78.824218 63.902343 142.726562 142.726562 142.726562 2.941407 0 5.859375-.117188 8.761719-.292969-75.269531-4.625-133.953125-67.019531-133.957031-142.433593zm0 0"/><path d="m116.824219 40.605469c-16.953125 7.191406-32.355469 17.59375-45.359375 30.628906l201.839844 201.839844c13.035156-13.003907 23.4375-28.40625 30.632812-45.359375zm0 0"/><path d="m204.460938 311.132812c11.726562-2.683593 23.0625-6.851562 33.734374-12.402343l-192.398437-192.398438c-5.550781 10.671875-9.714844 22.011719-12.402344 33.734375zm0 0"/></g><path d="m234.253906 66.023438c-.144531-.097657-.269531-.214844-.425781-.304688-.15625-.085938-.324219-.140625-.484375-.214844-37.707031-21.636718-84.0625-21.636718-121.769531 0-.164063.074219-.332031.128906-.484375.21875-.15625.09375-.28125.210938-.425782.308594-34.652343 20.171875-57.269531 56-60.566406 95.960938-3.300781 39.960937 13.132813 79.015624 44.011719 104.597656 1.527344 1.269531 3.527344 1.832031 5.496094 1.539062 1.96875-.292968 3.71875-1.40625 4.816406-3.070312 6.527344-9.933594 15.984375-17.589844 27.058594-21.914063 3.601562-1.410156 5.378906-5.472656 3.96875-9.074219-1.410157-3.597656-5.472657-5.375-9.074219-3.964843-11.222656 4.378906-21.148438 11.535156-28.851562 20.796875-5.652344-5.378906-10.714844-11.351563-15.089844-17.808594l21.175781-12.230469c2.183594-1.242187 3.535156-3.558593 3.539063-6.070312.003906-2.511719-1.335938-4.832031-3.515626-6.085938-2.175781-1.25-4.859374-1.238281-7.023437.03125l-21.289063 12.265625c-6.597656-13.085937-10.476562-27.375-11.394531-42h21.457031c3.867188 0 7-3.132812 7-7 0-3.867187-3.132812-7-7-7h-21.449218c.929687-14.621094 4.832031-28.898437 11.457031-41.964844l21.203125 12.25c2.164062 1.269532 4.847656 1.28125 7.023438.03125 2.179687-1.253906 3.519531-3.574218 3.515624-6.085937-.007812-2.511719-1.355468-4.828125-3.539062-6.070313l-21.101562-12.160156c7.914062-11.613281 17.984374-21.597656 29.667968-29.410156l10.699219 18.515625c1.242187 2.183594 3.558594 3.535156 6.070313 3.539063 2.511718.003906 4.835937-1.335938 6.085937-3.515626 1.25-2.175781 1.238281-4.859374-.03125-7.023437l-10.703125-18.546875c12.859375-6.382812 26.867188-10.136719 41.199219-11.039062v21.421874c0 3.863282 3.132812 7 7 7 3.867187 0 7-3.136718 7-7v-21.421874c14.332031.902343 28.335937 4.65625 41.199219 11.039062l-10.703126 18.546875c-1.902343 3.34375-.746093 7.597656 2.585938 9.519531 3.332031 1.925782 7.589844.796875 9.539062-2.519531l10.699219-18.535156c12.164063 8.144531 22.578125 18.640625 30.625 30.871093l-18.585937 10.730469c-3.320313 1.945313-4.445313 6.207031-2.523438 9.539063 1.925782 3.332031 6.179688 4.488281 9.523438 2.585937l18.484375-10.695312c6.152343 12.640625 9.773437 26.367187 10.664062 40.398437h-21.453125c-3.863281 0-7 3.132813-7 7 0 3.867188 3.136719 7 7 7h21.460938c-.878906 14.046875-4.484375 27.789063-10.617188 40.460938l-18.578125-10.730469c-3.347656-1.898437-7.597656-.746094-9.523437 2.585937-1.921875 3.332032-.796875 7.59375 2.523437 9.539063l18.65625 10.773437c-4.59375 7.019532-9.976562 13.484376-16.054687 19.265626-7.699219-9.261719-17.625-16.417969-28.847656-20.796876-2.339844-.976562-5.03125-.609374-7.023438.960938-1.996094 1.566406-2.984375 4.09375-2.585938 6.601562.398438 2.507813 2.121094 4.601563 4.503907 5.476563 11.070312 4.324219 20.527343 11.984375 27.058593 21.914063 1.097657 1.660156 2.847657 2.777343 4.8125 3.066406 1.96875.292968 3.964844-.265625 5.496094-1.535156 30.878906-25.582032 47.316406-64.636719 44.015625-104.597657-3.296875-39.964843-25.914062-75.792969-60.570312-95.964843zm0 0" fill="#002d42"/><path d="m172.460938 132.183594-15.652344 115.664062c.136718 8.546875 7.101562 15.402344 15.648437 15.402344s15.515625-6.855469 15.652344-15.402344zm0 0" fill="#0162a7"/><path d="m195.316406 294.359375h-45.710937c-3.867188 0-7-3.132813-7-7s3.132812-7 7-7h45.710937c3.867188 0 7 3.132813 7 7s-3.132812 7-7 7zm0 0" fill="#002d42"/><path d="m330.125 434.027344h-70.589844c-3.863281 0-7 3.132812-7 7 0 3.867187 3.136719 7 7 7h70.59375zm0 0" fill="#0162a7"/><path d="m302.367188 434.027344v14h27.757812v-14zm0 0" fill="#004584"/><path d="m14.796875 448.027344h70.585937c3.867188 0 7-3.132813 7-7 0-3.867188-3.132812-7-7-7h-70.585937zm0 0" fill="#0162a7"/><path d="m172.460938 132.183594v131.3125c8.640624 0 15.648437-7.007813 15.648437-15.648438zm0 0" fill="#004584"/></svg>