<svg height="512pt" viewBox="-2 0 512 512" width="512pt" xmlns="http://www.w3.org/2000/svg"><path d="m444.910156 265.859375h-30.148437v-56.753906h-105.894531v-30.148438h120.96875c8.324218 0 15.074218 6.75 15.074218 15.074219zm0 0" fill="#082130"/><path d="m308.816406 98.464844h128.03125v30.148437h-128.03125zm0 0" fill="#082130"/><path d="m465.269531 157.039062c-23.984375 0-43.496093-19.511718-43.496093-43.5 0-23.984374 19.511718-43.496093 43.496093-43.496093s43.5 19.511719 43.5 43.496093c0 23.988282-19.515625 43.5-43.5 43.5zm0 0" fill="#17bd49"/><path d="m429.835938 337.78125c-23.984376 0-43.5-19.511719-43.5-43.5 0-23.984375 19.515624-43.496094 43.5-43.496094 23.984374 0 43.496093 19.511719 43.496093 43.496094s-19.511719 43.5-43.496093 43.5zm0 0" fill="#17bd49"/><path d="m198.230469 176.324219h-90.824219c-8.324219 0-15.074219-6.746094-15.074219-15.070313v-71.832031h30.148438v56.757813h75.75zm0 0" fill="#145180"/><path d="m107.40625 104.496094c-23.984375 0-43.496094-19.511719-43.496094-43.496094s19.511719-43.5 43.496094-43.5 43.496094 19.515625 43.496094 43.5-19.511719 43.496094-43.496094 43.496094zm0 0" fill="#d9ff78"/><path d="m58.570312 310.746094h-30.148437v-71.828125c0-8.324219 6.75-15.074219 15.074219-15.074219h154.734375v30.144531h-139.660157zm0 0" fill="#145180"/><path d="m43.496094 382.667969c-23.984375 0-43.496094-19.515625-43.496094-43.5s19.511719-43.496094 43.496094-43.496094 43.496094 19.511719 43.496094 43.496094-19.511719 43.5-43.496094 43.5zm0 0" fill="#d9ff78"/><path d="m253.523438 512c-67.535157 0-122.472657-54.941406-122.472657-122.472656 0-21.507813 5.660157-42.671875 16.367188-61.199219 8.921875-15.441406 21.175781-28.804687 35.738281-39.046875v-218.914062c0-38.800782 31.566406-70.367188 70.367188-70.367188 38.800781 0 70.363281 31.566406 70.363281 70.367188v218.914062c14.5625 10.242188 26.816406 23.605469 35.738281 39.046875 10.710938 18.527344 16.371094 39.691406 16.371094 61.199219 0 67.53125-54.941406 122.472656-122.472656 122.472656zm0 0" fill="#ebf6fc"/><path d="m323.886719 289.28125v-218.914062c0-38.511719-31.101563-69.878907-69.503907-70.3437505v511.9648435c67.136719-.464843 121.613282-55.21875 121.613282-122.460937 0-21.507813-5.660156-42.671875-16.367188-61.199219-8.925781-15.441406-21.179687-28.800781-35.742187-39.046875zm0 0" fill="#cde2ff"/><path d="m268.59375 325.816406v-255.722656c0-8.324219-6.746094-15.074219-15.070312-15.074219-8.328126 0-15.074219 6.75-15.074219 15.074219v255.722656c-28.863281 6.828125-50.410157 32.792969-50.410157 63.710938 0 36.105468 29.375 65.480468 65.484376 65.480468 36.105468 0 65.480468-29.375 65.480468-65.480468 0-30.917969-21.546875-56.882813-50.410156-63.710938zm0 0" fill="#fff"/><path d="m268.59375 325.816406v-255.722656c0-8.035156-6.289062-14.582031-14.210938-15.03125v399.921875c35.710938-.464844 64.621094-29.640625 64.621094-65.457031 0-30.917969-21.546875-56.882813-50.410156-63.710938zm0 0" fill="#9ffeff"/></svg>