<?xml version="1.0" encoding="utf-8"?>
<!-- Generator: Adobe Illustrator 16.0.0, SVG Export Plug-In . SVG Version: 6.00 Build 0)  -->
<!DOCTYPE svg PUBLIC "-//W3C//DTD SVG 1.1//EN" "http://www.w3.org/Graphics/SVG/1.1/DTD/svg11.dtd">
<svg version="1.1" id="Слой_1" xmlns="http://www.w3.org/2000/svg" xmlns:xlink="http://www.w3.org/1999/xlink" x="0px" y="0px"
	 width="45px" height="45px" viewBox="0 0 45 45" enable-background="new 0 0 45 45" xml:space="preserve">
<path fill="#8674FF" d="M25.953,4.326c-3.854,0-7.374,1.455-10.04,3.842c0.591,0.941,0.927,2.036,0.959,3.165v0.003v0.003
	c0.014,0.509,0.044,1.019,0.088,1.526c2.021-2.779,5.298-4.591,8.992-4.591c6.129,0,11.116,4.988,11.116,11.117
	c0,6.065-4.883,11.007-10.923,11.111c0.552,0.462,1.121,0.9,1.707,1.314l0.003,0.002l0.003,0.001
	c0.798,0.563,1.45,1.302,1.904,2.148c6.469-1.693,11.255-7.587,11.255-14.577C41.019,11.084,34.26,4.326,25.953,4.326L25.953,4.326z
	 M25.953,4.326"/>
<path fill="#8674FF" d="M25.583,35.048c-1.722-1.375-2.795-2.289-4.332-3.713c-0.452-0.42-1.005-0.681-1.572-0.681
	c-0.434,0-0.863,0.138-1.216,0.429c-0.365,0.307-0.729,0.613-1.093,0.919c-2.962-3.519-5.161-7.62-6.453-12.033
	c0.457-0.134,0.915-0.268,1.371-0.401c1.007-0.309,1.48-1.384,1.333-2.462c-0.321-2.346-0.496-3.512-0.694-5.663
	c-0.103-1.102-0.836-2.06-1.888-2.117c-0.163-0.016-0.327-0.024-0.49-0.024c-3.911,0-7.316,4.532-6.057,10.078
	c1.568,6.867,4.961,13.195,9.813,18.301c1.988,2.087,4.423,3.031,6.622,3.031c2.321,0,4.377-1.051,5.375-2.921
	C26.837,36.883,26.449,35.738,25.583,35.048L25.583,35.048z M25.583,35.048"/>
<path fill="#8674FF" d="M21.421,19.67c-1.041,0.966-1.722,1.726-2.083,2.321c-0.253,0.422-0.438,0.867-0.55,1.322
	c-0.053,0.217-0.005,0.438,0.132,0.612c0.136,0.176,0.342,0.274,0.563,0.274h4.971c0.607,0,1.104-0.496,1.104-1.104
	c0-0.61-0.496-1.105-1.104-1.105h-2.245c0.017-0.021,0.037-0.043,0.056-0.064c0.146-0.166,0.505-0.511,1.066-1.025
	c0.59-0.54,0.986-0.946,1.217-1.236c0.344-0.44,0.6-0.868,0.762-1.275c0.163-0.414,0.247-0.854,0.247-1.312
	c0-0.819-0.297-1.514-0.881-2.067c-0.583-0.548-1.381-0.826-2.38-0.826c-0.905,0-1.675,0.237-2.286,0.706
	c-0.371,0.282-0.654,0.673-0.845,1.163c-0.129,0.331-0.097,0.709,0.088,1.012c0.185,0.303,0.507,0.505,0.862,0.541
	c0.039,0.004,0.078,0.005,0.117,0.005c0.498,0,0.941-0.315,1.104-0.787c0.052-0.147,0.118-0.265,0.201-0.349
	c0.174-0.176,0.407-0.262,0.714-0.262c0.313,0,0.545,0.081,0.714,0.248s0.25,0.411,0.25,0.745c0,0.311-0.111,0.634-0.33,0.962
	C22.766,18.342,22.417,18.745,21.421,19.67L21.421,19.67z M21.421,19.67"/>
<path fill="#8674FF" d="M31.371,14.186H30.54c-0.236,0-0.456,0.117-0.59,0.312l-3.839,5.621c-0.111,0.164-0.172,0.356-0.172,0.554
	v0.912c0,0.396,0.321,0.715,0.716,0.715h3.151v0.762c0,0.629,0.512,1.141,1.141,1.141s1.139-0.512,1.139-1.141v-0.762h0.115
	c0.583,0,1.06-0.475,1.06-1.059c0-0.584-0.477-1.059-1.06-1.059h-0.115v-5.279C32.086,14.507,31.766,14.186,31.371,14.186
	L31.371,14.186z M29.807,20.18h-1.413l1.413-2.104V20.18z M29.807,20.18"/>
</svg>
