<?xml version="1.0" encoding="utf-8"?>
<!-- Generator: Adobe Illustrator 16.0.0, SVG Export Plug-In . SVG Version: 6.00 Build 0)  -->
<!DOCTYPE svg PUBLIC "-//W3C//DTD SVG 1.1//EN" "http://www.w3.org/Graphics/SVG/1.1/DTD/svg11.dtd">
<svg version="1.1" id="Слой_1" xmlns="http://www.w3.org/2000/svg" xmlns:xlink="http://www.w3.org/1999/xlink" x="0px" y="0px"
	 width="45px" height="45px" viewBox="0 0 45 45" enable-background="new 0 0 45 45" xml:space="preserve">
<g>
	<g>
		<path fill="#8674FF" d="M30.166,3.319c-6.74,0-12.205,4.324-12.205,9.659c0,3.178,1.948,5.989,4.941,7.749
			c-0.293,1.605-1.225,3.495-2.528,4.799c3.183-0.237,5.983-1.149,7.817-3.026c0.645,0.083,1.301,0.137,1.975,0.137
			c6.74,0,12.204-4.324,12.204-9.659C42.37,7.644,36.906,3.319,30.166,3.319L30.166,3.319z M24.444,14.885
			c-1.053,0-1.907-0.854-1.907-1.907s0.854-1.907,1.907-1.907c1.054,0,1.907,0.854,1.907,1.907S25.498,14.885,24.444,14.885
			L24.444,14.885z M30.166,14.885c-1.054,0-1.907-0.854-1.907-1.907s0.854-1.907,1.907-1.907c1.053,0,1.906,0.854,1.906,1.907
			S31.219,14.885,30.166,14.885L30.166,14.885z M35.887,14.885c-1.053,0-1.907-0.854-1.907-1.907s0.854-1.907,1.907-1.907
			s1.907,0.854,1.907,1.907S36.939,14.885,35.887,14.885L35.887,14.885z M27.797,35.205c-3.869-3.109-4.951-1.581-6.708,0.174
			c-1.226,1.227-4.328-1.334-7.006-4.013s-5.239-5.78-4.013-7.006c1.756-1.755,3.284-2.838,0.173-6.707
			c-3.11-3.87-5.183-0.899-6.883,0.802c-1.963,1.963-0.104,9.277,7.126,16.508c7.23,7.229,14.544,9.089,16.507,7.126
			C28.694,40.389,31.666,38.316,27.797,35.205L27.797,35.205z M7.459,19.752c-0.052,0.021-0.129,0.053-0.226,0.093
			c-0.185,0.07-0.406,0.15-0.651,0.257c-0.115,0.055-0.243,0.115-0.36,0.188c-0.121,0.073-0.242,0.155-0.351,0.256
			c-0.119,0.096-0.211,0.219-0.318,0.349c-0.079,0.142-0.182,0.287-0.237,0.461c-0.08,0.166-0.109,0.356-0.157,0.543
			c-0.037,0.19-0.043,0.388-0.067,0.58c-0.002,0.39,0.013,0.764,0.063,1.083c0.026,0.324,0.108,0.6,0.141,0.789
			c0.04,0.19,0.063,0.299,0.063,0.299s-0.059-0.095-0.161-0.26C5.099,24.22,4.935,24,4.79,23.688
			c-0.167-0.304-0.323-0.677-0.471-1.096c-0.052-0.216-0.124-0.441-0.164-0.682c-0.028-0.243-0.074-0.494-0.055-0.758
			c-0.008-0.264,0.046-0.531,0.095-0.8c0.078-0.261,0.161-0.526,0.289-0.761c0.116-0.24,0.263-0.458,0.409-0.648
			c0.147-0.195,0.299-0.355,0.442-0.505c0.286-0.281,0.534-0.486,0.678-0.612c0.083-0.069,0.116-0.106,0.153-0.14
			c0.033-0.03,0.05-0.047,0.05-0.047l1.327,2.076C7.543,19.716,7.514,19.729,7.459,19.752L7.459,19.752z M27.374,39.469
			c-0.13,0.162-0.335,0.412-0.611,0.696c-0.147,0.14-0.3,0.292-0.489,0.435c-0.178,0.148-0.393,0.284-0.613,0.411
			c-0.227,0.125-0.467,0.231-0.722,0.312c-0.251,0.076-0.513,0.139-0.77,0.159l-0.382,0.026l-0.371-0.02
			c-0.243-0.002-0.471-0.068-0.689-0.104c-0.218-0.041-0.416-0.122-0.605-0.176c-0.188-0.052-0.358-0.145-0.516-0.207
			c-0.318-0.127-0.546-0.272-0.718-0.363c-0.169-0.092-0.265-0.146-0.265-0.146s0.108,0.018,0.299,0.047
			c0.189,0.025,0.465,0.085,0.786,0.092c0.16,0.003,0.326,0.031,0.51,0.014c0.18-0.014,0.368-0.005,0.557-0.039
			c0.188-0.037,0.382-0.047,0.563-0.115l0.271-0.084l0.25-0.117c0.664-0.321,1.025-0.887,1.234-1.359
			c0.104-0.244,0.178-0.459,0.233-0.628c0.062-0.177,0.096-0.278,0.096-0.278l2.149,1.203C27.57,39.227,27.499,39.314,27.374,39.469
			L27.374,39.469z M27.374,39.469"/>
	</g>
</g>
</svg>
