<?xml version="1.0" encoding="utf-8"?>
<!-- Generator: Adobe Illustrator 16.0.0, SVG Export Plug-In . SVG Version: 6.00 Build 0)  -->
<!DOCTYPE svg PUBLIC "-//W3C//DTD SVG 1.1//EN" "http://www.w3.org/Graphics/SVG/1.1/DTD/svg11.dtd">
<svg version="1.1" id="Слой_1" xmlns="http://www.w3.org/2000/svg" xmlns:xlink="http://www.w3.org/1999/xlink" x="0px" y="0px"
	 width="45px" height="45px" viewBox="0 0 45 45" enable-background="new 0 0 45 45" xml:space="preserve">
<g>
	<g>
		<path fill="#8674FF" d="M30.654,16.718c-0.044-0.242-0.273-0.403-0.517-0.361l-1.601,0.282c-0.191-0.451-0.437-0.873-0.729-1.259
			l1.046-1.246c0.076-0.091,0.112-0.208,0.104-0.326c-0.012-0.118-0.068-0.226-0.159-0.302l-1.399-1.175
			c-0.091-0.076-0.208-0.112-0.325-0.103c-0.117,0.01-0.228,0.067-0.303,0.158l-1.044,1.245c-0.429-0.218-0.888-0.387-1.368-0.498
			v-1.625c0-0.246-0.2-0.446-0.446-0.446h-1.827c-0.246,0-0.445,0.2-0.445,0.446v1.625c-0.48,0.111-0.939,0.28-1.368,0.498
			l-1.044-1.245c-0.158-0.189-0.439-0.213-0.628-0.055l-1.4,1.175c-0.091,0.077-0.147,0.184-0.158,0.302
			c-0.01,0.118,0.027,0.235,0.103,0.326l1.045,1.246c-0.291,0.386-0.536,0.809-0.729,1.259l-1.601-0.282
			c-0.242-0.042-0.473,0.119-0.516,0.361l-0.317,1.8c-0.02,0.117,0.006,0.237,0.074,0.333c0.068,0.096,0.171,0.163,0.288,0.183
			l1.601,0.283c0.026,0.496,0.112,0.976,0.251,1.433l-1.407,0.812c-0.103,0.06-0.177,0.156-0.208,0.271
			c-0.03,0.114-0.014,0.236,0.045,0.338l0.913,1.583c0.06,0.103,0.157,0.177,0.271,0.206c0.038,0.012,0.077,0.017,0.115,0.017
			c0.077,0,0.155-0.021,0.223-0.06l1.408-0.813c0.333,0.355,0.706,0.67,1.115,0.935l-0.557,1.529c-0.04,0.11-0.035,0.232,0.015,0.34
			s0.141,0.19,0.252,0.23l1.717,0.626c0.049,0.018,0.101,0.026,0.153,0.026c0.064,0,0.128-0.016,0.188-0.042
			c0.107-0.05,0.19-0.141,0.23-0.251l0.556-1.528c0.239,0.029,0.482,0.043,0.728,0.043s0.488-0.014,0.728-0.043l0.556,1.528
			c0.041,0.11,0.124,0.201,0.23,0.251c0.06,0.026,0.124,0.042,0.189,0.042c0.051,0,0.104-0.009,0.151-0.026l1.718-0.626
			c0.11-0.04,0.2-0.123,0.25-0.23c0.051-0.107,0.057-0.229,0.016-0.34l-0.557-1.529c0.409-0.265,0.783-0.579,1.114-0.935
			l1.409,0.813c0.068,0.039,0.145,0.06,0.224,0.06c0.038,0,0.076-0.005,0.114-0.017c0.114-0.029,0.212-0.104,0.271-0.206
			l0.915-1.583c0.058-0.102,0.074-0.224,0.044-0.338c-0.031-0.115-0.105-0.211-0.208-0.271l-1.408-0.812
			c0.14-0.458,0.227-0.938,0.253-1.433l1.601-0.283c0.116-0.02,0.22-0.086,0.288-0.183c0.068-0.097,0.095-0.217,0.074-0.333
			L30.654,16.718z M23,21.377c-1.354,0-2.451-1.098-2.451-2.451s1.097-2.452,2.451-2.452c1.354,0,2.451,1.099,2.451,2.452
			S24.354,21.377,23,21.377L23,21.377z M23,21.377"/>
		<path fill="#8674FF" d="M38.646,5.595H7.354c-1.724,0-3.127,1.403-3.127,3.127v20.395c0,1.725,1.403,3.126,3.127,3.126h10.083
			l-1.914,4.22c-0.198,0.437-0.161,0.942,0.099,1.345c0.259,0.401,0.705,0.646,1.183,0.646h12.39c0,0,0.002-0.001,0.002,0
			c0.777,0,1.408-0.631,1.408-1.408c0-0.234-0.057-0.454-0.157-0.648l-1.885-4.153h10.082c1.725,0,3.128-1.401,3.128-3.126V8.722
			C41.772,6.998,40.369,5.595,38.646,5.595L38.646,5.595z M38.957,29.116c0,0.171-0.141,0.311-0.311,0.311H7.354
			c-0.171,0-0.311-0.14-0.311-0.311V8.722c0-0.171,0.14-0.311,0.311-0.311h31.292c0.17,0,0.311,0.14,0.311,0.311V29.116z
			 M38.957,29.116"/>
	</g>
</g>
</svg>
