<?xml version="1.0" encoding="utf-8"?>
<!-- Generator: Adobe Illustrator 16.0.0, SVG Export Plug-In . SVG Version: 6.00 Build 0)  -->
<!DOCTYPE svg PUBLIC "-//W3C//DTD SVG 1.1//EN" "http://www.w3.org/Graphics/SVG/1.1/DTD/svg11.dtd">
<svg version="1.1" id="Слой_1" xmlns="http://www.w3.org/2000/svg" xmlns:xlink="http://www.w3.org/1999/xlink" x="0px" y="0px"
	 width="45px" height="45px" viewBox="0 0 45 45" enable-background="new 0 0 45 45" xml:space="preserve">
<path fill="#8674FF" d="M41.402,24.876l-4.867-2.667c-0.359-0.198-0.766-0.233-1.133-0.132c0.375-1.179,0.34-2.422-0.049-3.548
	v-7.016c0-0.744-0.604-1.347-1.348-1.347H6.055c-0.744,0-1.346,0.603-1.346,1.347V29.03H2.786c-0.34,0-0.615,0.275-0.615,0.615
	c0,1.46,1.188,2.647,2.648,2.647h21.396v-1.146c0-0.406,0.33-0.737,0.736-0.737c0.408,0,0.738,0.331,0.738,0.737v1.146h1.209v-1.146
	c0-0.406,0.33-0.737,0.736-0.737c0.408,0,0.738,0.331,0.738,0.737v1.146h4.857c1.459,0,2.648-1.188,2.648-2.647
	c0-0.34-0.275-0.615-0.615-0.615h-1.91v-4.003l4.588,2.515c0.736,0.403,1.66,0.134,2.063-0.603
	C42.408,26.203,42.139,25.28,41.402,24.876L41.402,24.876z M33.01,28.108H7.051V12.509H33.01v3.077
	c-0.09-0.056-0.182-0.111-0.277-0.163c-2.729-1.496-6.166-0.492-7.662,2.238c-1.494,2.729-0.49,6.167,2.238,7.663
	c1.852,1.014,4.025,0.878,5.701-0.165V28.108z M31.947,17.453c0,0.336-0.07,0.505-0.205,0.505s-0.217-0.162-0.215-0.5
	c-0.002-0.343,0.086-0.504,0.213-0.504C31.879,16.953,31.947,17.125,31.947,17.453L31.947,17.453z M28.164,17.453
	c0,0.336-0.074,0.505-0.207,0.505c-0.135,0-0.217-0.162-0.215-0.5c0-0.111,0.008-0.202,0.025-0.276
	c0.094-0.065,0.189-0.127,0.289-0.185C28.127,17.066,28.164,17.22,28.164,17.453L28.164,17.453z M26.689,22.411l0.002-0.002
	c0.107,0,0.174,0.104,0.197,0.299C26.818,22.612,26.75,22.513,26.689,22.411L26.689,22.411z M32.801,23.118
	c-0.006-0.06-0.012-0.125-0.012-0.203c-0.002-0.344,0.084-0.506,0.213-0.506c0.096,0,0.158,0.086,0.189,0.249
	C33.072,22.823,32.941,22.977,32.801,23.118L32.801,23.118z M33.447,22.251c-0.016,0.028-0.031,0.056-0.047,0.083
	c-0.088-0.114-0.217-0.186-0.395-0.186c-0.383,0-0.564,0.339-0.564,0.767c0.002,0.169,0.031,0.326,0.088,0.452
	c-1.197,1.002-2.936,1.228-4.385,0.433c-0.086-0.046-0.168-0.096-0.248-0.149h0.297v-1.478h-0.287l-0.391,0.183l0.057,0.259
	l0.281-0.134h0.004v1.146c-0.229-0.152-0.439-0.326-0.625-0.517c0.01-0.064,0.014-0.133,0.014-0.205
	c0-0.404-0.154-0.757-0.549-0.757c-0.053,0-0.102,0.007-0.146,0.019c-0.574-1.117-0.604-2.49,0.043-3.672
	c0.057-0.104,0.119-0.204,0.186-0.301l0.152-0.213c0.141-0.183,0.297-0.35,0.463-0.502c0.01,0.408,0.178,0.74,0.553,0.74
	c0.377,0,0.563-0.314,0.563-0.771c0-0.237-0.055-0.455-0.178-0.596c0.969-0.463,2.115-0.524,3.158-0.099
	c-0.209,0.116-0.311,0.385-0.311,0.704c0.004,0.418,0.17,0.762,0.553,0.762c0.379,0,0.563-0.314,0.563-0.771
	c0-0.095-0.01-0.187-0.027-0.272c0.236,0.166,0.449,0.355,0.639,0.563v0.456h0.334V18.16c0.285,0.417,0.486,0.883,0.594,1.372
	c0.035,0.149,0.063,0.348,0.063,0.348C33.998,20.67,33.859,21.5,33.447,22.251L33.447,22.251z M33.447,22.251"/>
<path fill="#8674FF" d="M29.115,17.023h0.004v1.171h0.336v-1.478h-0.287l-0.391,0.182l0.057,0.259L29.115,17.023z M29.115,17.023"/>
<path fill="#8674FF" d="M30.377,17.023h0.006v1.171h0.334v-1.478H30.43l-0.391,0.182l0.057,0.259L30.377,17.023z M30.377,17.023"/>
<path fill="#8674FF" d="M26.697,19.419c-0.383,0-0.564,0.339-0.564,0.766c0.002,0.418,0.17,0.762,0.553,0.762
	c0.377,0,0.561-0.314,0.561-0.771C27.246,19.772,27.092,19.419,26.697,19.419L26.697,19.419z M26.695,20.686
	c-0.135,0-0.217-0.161-0.215-0.5c-0.002-0.343,0.084-0.504,0.211-0.504c0.141,0,0.209,0.173,0.209,0.5
	C26.9,20.518,26.828,20.686,26.695,20.686L26.695,20.686z M26.695,20.686"/>
<path fill="#8674FF" d="M28.193,19.445h-0.287l-0.391,0.182l0.057,0.259l0.281-0.134h0.004v1.17h0.336V19.445z M28.193,19.445"/>
<path fill="#8674FF" d="M29.209,20.948c0.377,0,0.563-0.314,0.563-0.771c0-0.405-0.156-0.757-0.551-0.757
	c-0.383,0-0.564,0.339-0.564,0.766C28.658,20.604,28.826,20.948,29.209,20.948L29.209,20.948z M29.215,19.681
	c0.141,0,0.211,0.173,0.211,0.5c0,0.336-0.074,0.505-0.207,0.505c-0.135,0-0.217-0.161-0.215-0.5
	C29.002,19.843,29.088,19.681,29.215,19.681L29.215,19.681z M29.215,19.681"/>
<path fill="#8674FF" d="M30.377,19.752h0.006v1.17h0.334v-1.478H30.43l-0.391,0.182l0.057,0.259L30.377,19.752z M30.377,19.752"/>
<path fill="#8674FF" d="M31.639,19.752h0.006v1.17h0.334v-1.478h-0.285l-0.393,0.182l0.057,0.259L31.639,19.752z M31.639,19.752"/>
<path fill="#8674FF" d="M32.994,20.948c0.377,0,0.563-0.314,0.563-0.771c0-0.405-0.154-0.757-0.551-0.757
	c-0.383,0-0.564,0.339-0.564,0.766C32.445,20.604,32.613,20.948,32.994,20.948L32.994,20.948z M33.002,19.681
	c0.137,0,0.209,0.173,0.209,0.5c0,0.336-0.072,0.505-0.207,0.505s-0.217-0.161-0.215-0.5C32.787,19.843,32.873,19.681,33.002,19.681
	L33.002,19.681z M33.002,19.681"/>
<path fill="#8674FF" d="M29.209,23.676c0.377,0,0.563-0.313,0.563-0.771c0-0.404-0.156-0.757-0.551-0.757
	c-0.383,0-0.564,0.339-0.564,0.767C28.658,23.334,28.826,23.676,29.209,23.676L29.209,23.676z M29.215,22.409
	c0.141,0,0.211,0.174,0.211,0.501c0,0.337-0.074,0.505-0.207,0.505c-0.135,0-0.217-0.161-0.215-0.5
	C29.002,22.571,29.088,22.409,29.215,22.409L29.215,22.409z M29.215,22.409"/>
<path fill="#8674FF" d="M30.377,22.48h0.006v1.171h0.334v-1.479H30.43l-0.391,0.183l0.057,0.259L30.377,22.48z M30.377,22.48"/>
<path fill="#8674FF" d="M31.732,23.676c0.379,0,0.563-0.313,0.563-0.771c0-0.404-0.156-0.757-0.551-0.757
	c-0.383,0-0.564,0.339-0.564,0.767C31.184,23.334,31.35,23.676,31.732,23.676L31.732,23.676z M31.74,22.409
	c0.139,0,0.207,0.174,0.207,0.501c0,0.337-0.07,0.505-0.205,0.505s-0.217-0.161-0.215-0.5C31.525,22.571,31.613,22.409,31.74,22.409
	L31.74,22.409z M31.74,22.409"/>
</svg>
