<?xml version="1.0" encoding="utf-8"?>
<!-- Generator: Adobe Illustrator 16.0.0, SVG Export Plug-In . SVG Version: 6.00 Build 0)  -->
<!DOCTYPE svg PUBLIC "-//W3C//DTD SVG 1.1//EN" "http://www.w3.org/Graphics/SVG/1.1/DTD/svg11.dtd">
<svg version="1.1" id="Слой_1" xmlns="http://www.w3.org/2000/svg" xmlns:xlink="http://www.w3.org/1999/xlink" x="0px" y="0px"
	 width="45px" height="45px" viewBox="0 0 45 45" enable-background="new 0 0 45 45" xml:space="preserve">
<g>
	<path fill="#8674FF" d="M32.3,5.158L13.508,5.146c-0.055-0.007-0.149-0.014-0.278-0.014c-1.572,0-3.411,0.943-3.411,3.593v32.038
		h25.621V8.725C35.439,6.359,33.385,5.355,32.3,5.158L32.3,5.158z M33.73,38.973H11.526V8.725c0-0.447,0-1.804,1.703-1.804
		c0.083,0,0.136,0.008,0.143,0.008l18.688,0.007c0.32,0.074,1.67,0.46,1.67,1.789V38.973z M33.73,38.973"/>
	<rect x="13.521" y="19.068" fill="#8674FF" width="8.084" height="2.238"/>
	<rect x="23.646" y="19.068" fill="#8674FF" width="8.076" height="2.238"/>
	<rect x="13.622" y="23.246" fill="#8674FF" width="3.249" height="3.435"/>
	<rect x="18.424" y="23.246" fill="#8674FF" width="3.255" height="3.435"/>
	<rect x="23.402" y="23.246" fill="#8674FF" width="3.248" height="3.435"/>
	<rect x="28.495" y="23.246" fill="#8674FF" width="3.255" height="3.435"/>
	<rect x="13.622" y="28.081" fill="#8674FF" width="3.249" height="3.438"/>
	<rect x="18.424" y="28.081" fill="#8674FF" width="3.255" height="3.438"/>
	<rect x="23.307" y="28.081" fill="#8674FF" width="3.249" height="3.438"/>
	<rect x="28.4" y="28.081" fill="#8674FF" width="3.255" height="3.438"/>
	<rect x="13.508" y="32.909" fill="#8674FF" width="3.255" height="3.438"/>
	<rect x="18.316" y="32.909" fill="#8674FF" width="3.254" height="3.438"/>
	<rect x="23.402" y="32.909" fill="#8674FF" width="3.248" height="3.438"/>
	<rect x="28.4" y="32.909" fill="#8674FF" width="3.255" height="3.438"/>
	<path fill="#8674FF" d="M31.723,9.927H13.508v6.605h18.215V9.927z M23.422,14.958h-0.929v-1.885h-0.719v-0.678
		c0.108,0,0.217-0.008,0.325-0.034c0.108-0.021,0.204-0.061,0.292-0.116c0.088-0.054,0.156-0.128,0.21-0.218
		c0.055-0.094,0.088-0.21,0.088-0.346h0.732V14.958z M27.064,14.958h-2.679c-0.014-0.163,0-0.312,0.04-0.441
		c0.041-0.136,0.102-0.258,0.177-0.373c0.067-0.088,0.143-0.176,0.224-0.257c0.088-0.082,0.177-0.156,0.271-0.231
		c0.102-0.074,0.196-0.135,0.305-0.203c0.102-0.061,0.204-0.122,0.299-0.19c0.04-0.027,0.081-0.054,0.136-0.082
		c0.047-0.034,0.095-0.068,0.136-0.108c0.04-0.036,0.081-0.075,0.108-0.122c0.026-0.047,0.04-0.102,0.04-0.163
		c0-0.149-0.033-0.251-0.108-0.312c-0.074-0.061-0.162-0.09-0.265-0.09c-0.176,0-0.298,0.063-0.373,0.191
		c-0.067,0.122-0.102,0.285-0.095,0.481h-0.834c-0.014-0.224,0.007-0.427,0.068-0.597c0.054-0.176,0.135-0.326,0.257-0.448
		c0.115-0.123,0.258-0.21,0.421-0.28c0.17-0.06,0.357-0.086,0.563-0.086c0.19,0,0.359,0.02,0.516,0.061
		c0.156,0.04,0.292,0.108,0.4,0.189c0.115,0.088,0.196,0.191,0.258,0.327c0.061,0.129,0.088,0.278,0.088,0.454
		c0,0.21-0.041,0.387-0.129,0.529c-0.081,0.142-0.189,0.271-0.325,0.373c-0.136,0.115-0.285,0.21-0.441,0.298
		c-0.162,0.088-0.312,0.176-0.461,0.271v0.007h1.404V14.958z M29.96,14.294c-0.041,0.122-0.108,0.23-0.203,0.332
		c-0.103,0.109-0.237,0.19-0.4,0.265c-0.17,0.068-0.38,0.108-0.631,0.108c-0.23,0-0.427-0.027-0.59-0.081
		c-0.163-0.048-0.292-0.115-0.394-0.197s-0.183-0.176-0.237-0.271c-0.055-0.102-0.095-0.196-0.115-0.292
		c-0.027-0.095-0.041-0.183-0.041-0.265c0-0.074,0-0.135,0-0.176h0.848c-0.007,0.176,0.034,0.305,0.115,0.394
		c0.041,0.047,0.096,0.088,0.163,0.108c0.062,0.027,0.136,0.034,0.21,0.034c0.129,0,0.225-0.027,0.299-0.082
		s0.115-0.149,0.115-0.285c0-0.075-0.014-0.129-0.034-0.177c-0.027-0.041-0.054-0.074-0.095-0.102
		c-0.041-0.027-0.088-0.041-0.136-0.047c-0.047-0.007-0.102-0.014-0.149-0.014c-0.067,0-0.115,0-0.155,0.007
		c-0.034,0.007-0.075,0.014-0.103,0.021v-0.645c0.027,0.007,0.068,0.007,0.109,0.014c0.04,0.007,0.088,0.007,0.148,0.007
		c0.048,0,0.096-0.007,0.143-0.007c0.048-0.007,0.095-0.021,0.136-0.047c0.041-0.021,0.074-0.054,0.102-0.088
		c0.027-0.041,0.041-0.088,0.041-0.156c0-0.047-0.014-0.095-0.034-0.129c-0.027-0.041-0.061-0.068-0.095-0.088
		c-0.041-0.027-0.081-0.041-0.136-0.054c-0.048-0.007-0.095-0.014-0.136-0.014c-0.061,0-0.115,0.007-0.169,0.027
		c-0.055,0.021-0.103,0.041-0.143,0.075c-0.034,0.034-0.068,0.081-0.089,0.129c-0.026,0.047-0.033,0.108-0.026,0.176h-0.841
		c0.007-0.19,0.04-0.359,0.108-0.502c0.067-0.143,0.162-0.258,0.277-0.353c0.122-0.089,0.258-0.157,0.414-0.204
		c0.149-0.048,0.318-0.068,0.495-0.068c0.224,0,0.414,0.033,0.563,0.094c0.156,0.062,0.278,0.136,0.373,0.224
		c0.096,0.088,0.156,0.177,0.197,0.272c0.04,0.102,0.061,0.183,0.061,0.25c0,0.177-0.021,0.305-0.067,0.4
		c-0.041,0.095-0.089,0.163-0.136,0.204c-0.055,0.041-0.102,0.067-0.143,0.081c-0.041,0.007-0.061,0.014-0.061,0.021v0.007
		c0,0.007,0.013,0.014,0.033,0.02c0.027,0.007,0.062,0.014,0.095,0.034c0.034,0.021,0.075,0.041,0.122,0.068
		c0.048,0.027,0.089,0.075,0.122,0.129c0.034,0.054,0.068,0.122,0.096,0.203c0.021,0.088,0.033,0.19,0.033,0.312
		C30.021,14.063,30.001,14.172,29.96,14.294L29.96,14.294z M29.96,14.294"/>
</g>
</svg>
