<?xml version="1.0" encoding="utf-8"?>
<!-- Generator: Adobe Illustrator 16.0.0, SVG Export Plug-In . SVG Version: 6.00 Build 0)  -->
<!DOCTYPE svg PUBLIC "-//W3C//DTD SVG 1.1//EN" "http://www.w3.org/Graphics/SVG/1.1/DTD/svg11.dtd">
<svg version="1.1" id="Слой_1" xmlns="http://www.w3.org/2000/svg" xmlns:xlink="http://www.w3.org/1999/xlink" x="0px" y="0px"
	 width="45px" height="45px" viewBox="0 0 45 45" enable-background="new 0 0 45 45" xml:space="preserve">
<g>
	<path fill="#8674FF" d="M9.845,36.874c0,0-0.026,0.783,0.732,0.783c0.951,0,8.802-0.013,8.802-0.013l0.013-7.212
		c0,0-0.121-1.187,1.033-1.187h3.647c1.37,0,1.281,1.187,1.281,1.187l-0.013,7.192h8.613c0.972,0,0.928-0.972,0.928-0.972V23.352
		L22.735,12.555L9.845,23.352V36.874z M9.845,36.874"/>
	<path fill="#8674FF" d="M5.099,22.348c0,0,1.091,2.02,3.482,0l14.262-12.065L36.22,22.272c2.764,1.994,3.799,0,3.799,0
		L22.843,6.718L5.099,22.348z M5.099,22.348"/>
	<path fill="#8674FF" d="M35.892,10.25h-3.439l0.014,4.172l3.426,2.909V10.25z M35.892,10.25"/>
</g>
</svg>
