<?xml version="1.0" encoding="utf-8"?>
<!-- Generator: Adobe Illustrator 16.0.0, SVG Export Plug-In . SVG Version: 6.00 Build 0)  -->
<!DOCTYPE svg PUBLIC "-//W3C//DTD SVG 1.1//EN" "http://www.w3.org/Graphics/SVG/1.1/DTD/svg11.dtd">
<svg version="1.1" id="Слой_1" xmlns="http://www.w3.org/2000/svg" xmlns:xlink="http://www.w3.org/1999/xlink" x="0px" y="0px"
	 width="45px" height="45px" viewBox="0 0 45 45" enable-background="new 0 0 45 45" xml:space="preserve">
<path fill="#8674FF" d="M19.905,15.029l-0.148-0.127c0.734-2.65,0.061-5.603-2.018-7.682c-2.064-2.065-4.985-2.738-7.614-2.025
	l4.453,4.453l-1.171,4.359l-4.358,1.171L4.59,10.724c-0.707,2.632-0.033,5.55,2.038,7.622c2.159,2.167,5.279,2.798,8.003,1.911
	l0.027,0.027l18.323,18.315c0.718,0.727,1.668,1.09,2.623,1.09c0.948,0,1.896-0.363,2.623-1.09c1.453-1.439,1.453-3.793,0-5.246
	L19.905,15.029z M35.921,37.979c-0.78,0-1.413-0.64-1.413-1.42c0-0.786,0.633-1.419,1.413-1.419c0.786,0,1.419,0.633,1.419,1.419
	C37.34,37.34,36.707,37.979,35.921,37.979L35.921,37.979z M35.921,37.979"/>
</svg>
